<!DOCTYPE svg PUBLIC "-//W3C//DTD SVG 20010904//EN" "http://www.w3.org/TR/2001/REC-SVG-20010904/DTD/svg10.dtd">
<svg version="1.0" xmlns="http://www.w3.org/2000/svg" width="64px" height="64px" viewBox="0 0 640 640" preserveAspectRatio="xMidYMid meet">
<g id="layer101" fill="#1f2829" stroke="none">
 <path d="M0 320 l0 -320 320 0 320 0 0 320 0 320 -320 0 -320 0 0 -320z"/>
 </g>
<g id="layer102" fill="#262b2c" stroke="none">
 <path d="M0 498 c0 -79 4 -138 8 -133 4 6 16 15 27 21 18 10 21 9 23 -14 3 -34 20 -52 31 -33 6 9 11 10 15 2 4 -6 12 -8 18 -5 7 4 8 2 4 -4 -4 -7 -1 -12 9 -12 9 0 13 -5 10 -10 -4 -7 -13 -6 -27 1 -14 7 -23 8 -31 0 -7 -7 -4 -10 9 -10 44 -1 69 -9 69 -22 0 -8 3 -18 6 -24 2 -5 2 -30 -2 -55 -3 -25 -7 -41 -7 -36 -1 5 -9 3 -17 -4 -12 -10 -19 -10 -27 -2 -8 8 -16 4 -30 -14 -26 -33 -39 -30 -65 14 l-22 37 -1 -97 0 -98 40 0 c40 0 40 1 35 31 -3 18 -10 40 -15 50 -15 26 -12 36 3 14 13 -17 14 -16 13 6 -1 21 4 24 42 27 26 2 42 -1 42 -8 0 -6 11 -23 25 -38 30 -32 31 -42 8 -43 -10 0 -29 -2 -43 -4 -14 -2 -19 -1 -12 1 17 8 16 64 -2 64 -8 0 -18 -4 -21 -10 -3 -5 1 -10 9 -10 9 0 16 -5 16 -10 0 -6 -6 -9 -12 -8 -7 2 -13 -4 -13 -12 0 -8 -6 -17 -13 -20 -9 -4 -5 -10 13 -18 15 -7 24 -8 20 -2 -3 5 -1 10 4 10 6 0 11 -4 11 -10 0 -5 14 -10 30 -10 20 0 30 5 30 15 0 8 5 15 10 15 6 0 10 16 10 36 0 24 -4 33 -12 28 -8 -5 -9 -2 -5 10 4 10 7 20 7 23 0 3 6 0 14 -6 11 -9 20 -10 36 -1 11 6 25 8 30 5 5 -3 11 -1 15 5 4 6 11 8 16 5 12 -8 12 -85 -1 -85 -5 0 -10 -4 -10 -10 0 -5 7 -10 15 -10 8 0 15 -6 15 -14 0 -11 15 -14 61 -15 57 0 61 1 56 21 -4 12 0 47 7 78 8 32 10 63 6 70 -9 14 3 65 21 86 9 11 8 18 -2 30 -10 13 -10 17 1 24 15 9 20 110 6 110 -6 0 -1 7 10 15 14 11 15 14 4 15 -11 0 -12 2 -3 8 15 10 48 107 48 142 0 22 6 26 40 31 22 3 -105 7 -282 7 l-323 2 0 -142z m476 -260 c4 -7 4 -10 -1 -6 -4 4 -15 2 -24 -5 -14 -11 -14 -10 -2 6 16 20 18 21 27 5z m-29 -55 c-4 -3 -7 0 -7 7 0 7 3 10 7 7 3 -4 3 -10 0 -14z m-23 -74 c-15 -31 -28 -36 -40 -17 -5 7 -3 8 6 3 10 -6 12 -3 8 13 -4 12 -2 22 4 22 5 0 7 4 4 9 -4 5 3 7 14 4 18 -5 18 -7 4 -34z m-159 21 c-3 -5 -12 -10 -18 -10 -7 0 -6 4 3 10 19 12 23 12 15 0z m-220 -61 c11 -16 1 -19 -13 -3 -7 8 -8 14 -3 14 5 0 13 -5 16 -11z"/>
 <path d="M520 390 c0 -7 3 -10 7 -7 3 4 3 10 0 14 -4 3 -7 0 -7 -7z"/>
 <path d="M23 363 c4 -3 10 -3 14 0 3 4 0 7 -7 7 -7 0 -10 -3 -7 -7z"/>
 <path d="M36 312 c-2 -4 -1 -14 5 -22 7 -12 9 -10 9 8 0 23 -5 28 -14 14z"/>
 <path d="M4 282 c3 -18 18 -20 24 -4 1 5 -4 12 -12 15 -9 4 -13 0 -12 -11z"/>
 <path d="M146 274 c-3 -9 -2 -22 2 -31 6 -10 9 -5 9 16 0 35 -2 38 -11 15z"/>
 <path d="M60 231 c0 -23 19 -38 29 -23 3 5 15 12 26 15 19 4 18 5 -2 6 -12 0 -25 6 -28 11 -10 17 -25 11 -25 -9z"/>
 <path d="M40 150 c0 -5 7 -10 16 -10 8 0 12 5 9 10 -3 6 -10 10 -16 10 -5 0 -9 -4 -9 -10z"/>
 </g>
<g id="layer103" fill="#433d3a" stroke="none">
 <path d="M0 514 c0 -116 1 -126 17 -119 44 16 69 16 88 -2 25 -23 65 -85 89 -140 18 -40 19 -41 69 -41 27 -1 54 -5 60 -11 18 -18 -5 -31 -59 -31 -41 0 -54 -4 -54 -15 0 -12 13 -14 72 -11 44 2 74 8 76 15 2 7 15 16 29 22 15 5 32 27 45 56 11 26 32 56 46 67 23 18 24 24 19 87 -4 53 -2 70 9 80 25 21 43 64 46 110 3 44 3 44 48 50 25 3 -100 7 -277 7 l-323 2 0 -126z m137 109 c-4 -3 -10 -3 -14 0 -3 4 0 7 7 7 7 0 10 -3 7 -7z m83 -3 c0 -13 -20 -13 -40 0 -12 8 -9 10 13 10 15 0 27 -4 27 -10z m101 -1 c-16 -6 -28 -6 -35 1 -7 7 1 10 25 9 32 0 33 -1 10 -10z m-154 -246 c-4 -3 -7 0 -7 7 0 7 3 10 7 7 3 -4 3 -10 0 -14z m217 8 c4 -5 -3 -7 -14 -4 -23 6 -26 13 -6 13 8 0 17 -4 20 -9z m23 -118 c-4 -3 -7 0 -7 7 0 7 3 10 7 7 3 -4 3 -10 0 -14z m-114 -20 c-7 -2 -21 -2 -30 0 -10 3 -4 5 12 5 17 0 24 -2 18 -5z"/>
 <path d="M0 65 l0 -65 41 0 40 0 -37 35 c-35 34 -36 36 -19 49 16 12 17 16 6 30 -24 29 -31 17 -31 -49z"/>
 </g>
<g id="layer104" fill="#3d3e42" stroke="none">
 <path d="M0 514 c0 -116 1 -126 17 -119 44 16 69 16 88 -2 25 -23 65 -85 89 -140 18 -40 19 -41 69 -41 31 -1 56 -7 65 -16 19 -19 8 -24 -62 -28 -28 -2 -51 -8 -53 -15 -3 -9 14 -11 65 -9 55 3 74 8 91 25 11 11 26 21 32 21 5 0 20 21 31 47 11 26 32 56 46 67 23 19 24 23 19 92 -5 57 -4 73 8 77 22 9 44 60 47 108 3 44 3 44 48 50 25 3 -100 7 -277 7 l-323 2 0 -126z m137 110 c-3 -3 -12 -4 -19 -1 -8 3 -5 6 6 6 11 1 17 -2 13 -5z m83 -8 c0 -9 -7 -12 -20 -9 -31 8 -34 23 -6 23 16 0 26 -6 26 -14z m116 7 c-11 -11 -45 -13 -51 -3 -4 6 7 10 26 10 18 0 29 -3 25 -7z m-79 -50 c-4 -3 -7 0 -7 7 0 7 3 10 7 7 3 -4 3 -10 0 -14z m-129 -21 c2 -6 -6 -10 -17 -9 -22 1 -26 8 -14 21 9 9 26 3 31 -12z m287 -102 c3 -5 4 -10 1 -10 -3 0 -8 5 -11 10 -3 6 -4 10 -1 10 3 0 8 -4 11 -10z m-32 -65 c10 -7 17 -20 15 -28 -2 -10 -13 -7 -42 15 -35 25 -37 28 -15 28 13 0 32 -7 42 -15z m-216 -12 c-4 -3 -7 0 -7 7 0 7 3 10 7 7 3 -4 3 -10 0 -14z m80 11 c-3 -3 -12 -4 -19 -1 -8 3 -5 6 6 6 11 1 17 -2 13 -5z m93 -54 c-9 -6 -19 -5 -25 1 -6 6 -5 13 5 19 9 6 19 5 25 -1 6 -6 5 -13 -5 -19z m72 -66 c-8 -14 -11 -11 -21 16 -15 45 -14 47 9 22 15 -16 18 -27 12 -38z m-86 -9 c-22 -17 -72 -20 -81 -5 -4 6 5 7 24 4 16 -3 37 -1 48 5 26 15 31 13 9 -4z"/>
 <path d="M0 65 l0 -65 42 0 41 0 -39 34 c-38 33 -38 35 -19 49 16 13 17 17 6 31 -24 29 -31 17 -31 -49z"/>
 </g>
<g id="layer105" fill="#3d423e" stroke="none">
 <path d="M0 516 l0 -125 33 13 c20 9 40 11 54 5 23 -8 76 -86 107 -157 l19 -43 44 7 c35 5 48 3 64 -12 l20 -18 -23 -18 -23 -18 33 0 c17 0 32 4 32 10 0 5 13 16 29 24 18 10 35 31 46 58 9 23 27 53 41 67 26 26 31 70 13 118 -9 24 -7 30 14 48 24 21 41 56 52 113 6 28 4 32 -17 34 -13 1 6 4 42 8 36 4 -80 7 -257 8 l-323 2 0 -124z m137 108 c-3 -3 -12 -4 -19 -1 -8 3 -5 6 6 6 11 1 17 -2 13 -5z m87 -9 c-4 -8 -12 -15 -19 -15 -7 0 -18 7 -25 15 -11 13 -8 15 18 15 24 0 30 -4 26 -15z m124 10 c-11 -11 -57 -15 -63 -5 -4 6 9 10 31 10 21 0 35 -2 32 -5z m-91 -52 c-4 -3 -7 0 -7 7 0 7 3 10 7 7 3 -4 3 -10 0 -14z m-127 -25 c0 -4 -9 -6 -20 -5 -23 1 -25 8 -8 25 9 9 14 9 20 -1 4 -6 8 -15 8 -19z m285 -98 c3 -5 4 -10 1 -10 -3 0 -8 5 -11 10 -3 6 -4 10 -1 10 3 0 8 -4 11 -10z m-32 -65 c10 -7 17 -20 15 -28 -2 -10 -13 -7 -42 15 -35 25 -37 28 -15 28 13 0 32 -7 42 -15z m-216 -12 c-4 -3 -7 0 -7 7 0 7 3 10 7 7 3 -4 3 -10 0 -14z m80 11 c-3 -3 -12 -4 -19 -1 -8 3 -5 6 6 6 11 1 17 -2 13 -5z m93 -54 c-9 -6 -19 -5 -25 1 -6 6 -5 13 5 19 9 6 19 5 25 -1 6 -6 5 -13 -5 -19z m72 -66 c-8 -14 -11 -11 -21 16 -15 45 -14 47 9 22 15 -16 18 -27 12 -38z m-86 -9 c-22 -17 -72 -20 -81 -5 -4 6 5 7 24 4 16 -3 37 -1 48 5 26 15 31 13 9 -4z"/>
 <path d="M215 160 c-9 -14 21 -23 51 -16 31 8 29 11 -13 19 -18 4 -35 2 -38 -3z"/>
 <path d="M0 65 l0 -65 43 0 c39 1 41 2 22 15 -53 37 -66 61 -40 71 11 5 12 11 4 25 -19 36 -29 19 -29 -46z"/>
 </g>
<g id="layer106" fill="#423e43" stroke="none">
 <path d="M0 516 l0 -125 33 13 c20 9 40 11 54 5 22 -8 67 -73 108 -154 20 -40 21 -40 71 -37 38 3 54 -1 64 -13 12 -15 11 -19 -10 -36 l-25 -19 27 0 c33 0 105 62 113 99 3 15 19 39 35 55 33 30 39 71 19 123 -9 24 -7 30 14 48 24 21 41 56 52 113 6 28 4 32 -17 34 -13 1 6 4 42 8 36 4 -80 7 -257 8 l-323 2 0 -124z m143 107 c-7 -2 -19 -2 -25 0 -7 3 -2 5 12 5 14 0 19 -2 13 -5z m84 -8 c0 -23 -24 -26 -49 -5 l-23 19 36 1 c25 0 36 -4 36 -15z m121 8 c-10 -2 -18 -8 -18 -12 0 -13 -38 -10 -44 5 -4 11 4 14 37 13 23 -1 34 -3 25 -6z m-91 -50 c-4 -3 -7 0 -7 7 0 7 3 10 7 7 3 -4 3 -10 0 -14z m-127 -18 c0 -8 -9 -13 -20 -12 -22 1 -27 23 -7 30 16 6 27 -1 27 -18z m157 8 c-4 -3 -10 -3 -14 0 -3 4 0 7 7 7 7 0 10 -3 7 -7z m133 -113 c0 -5 -2 -10 -4 -10 -3 0 -8 5 -11 10 -3 6 -1 10 4 10 6 0 11 -4 11 -10z m-37 -65 c10 -7 17 -20 15 -28 -2 -10 -13 -7 -42 15 -35 25 -37 28 -15 28 13 0 32 -7 42 -15z m-216 -12 c-4 -3 -7 0 -7 7 0 7 3 10 7 7 3 -4 3 -10 0 -14z m80 11 c-3 -3 -12 -4 -19 -1 -8 3 -5 6 6 6 11 1 17 -2 13 -5z m93 -54 c-9 -6 -19 -5 -25 1 -6 6 -5 13 5 19 9 6 19 5 25 -1 6 -6 5 -13 -5 -19z m72 -66 c-8 -14 -11 -11 -21 16 -15 45 -14 47 9 22 15 -16 18 -27 12 -38z m-78 -4 c-21 -21 -72 -29 -85 -14 -10 12 -6 13 19 8 16 -3 38 -1 49 5 23 13 30 14 17 1z"/>
 <path d="M215 160 c-9 -14 21 -23 51 -16 31 8 29 11 -13 19 -18 4 -35 2 -38 -3z"/>
 <path d="M0 110 c0 -13 7 -20 20 -20 18 0 19 3 10 20 -6 11 -15 20 -20 20 -6 0 -10 -9 -10 -20z"/>
 <path d="M0 44 c0 -39 1 -40 35 -42 20 -2 35 2 35 8 0 6 -4 9 -9 5 -6 -3 -21 11 -35 32 l-26 38 0 -41z"/>
 </g>
<g id="layer107" fill="#45433e" stroke="none">
 <path d="M0 516 l0 -125 33 13 c20 9 40 11 54 5 22 -8 67 -73 108 -154 20 -40 21 -40 71 -37 63 4 88 -16 59 -48 -17 -19 -17 -20 3 -20 28 0 100 66 107 99 3 15 19 39 35 55 33 30 39 71 19 123 -9 24 -7 30 14 48 24 21 41 56 52 113 6 30 5 32 -22 34 -15 1 4 4 42 8 39 4 -75 7 -252 8 l-323 2 0 -124z m143 107 c-7 -2 -19 -2 -25 0 -7 3 -2 5 12 5 14 0 19 -2 13 -5z m84 -8 c0 -23 -24 -26 -49 -5 l-23 19 36 1 c25 0 36 -4 36 -15z m118 3 c-30 -18 -52 -19 -59 -3 -4 12 4 15 37 15 37 -1 40 -2 22 -12z m-88 -45 c-4 -3 -7 0 -7 7 0 7 3 10 7 7 3 -4 3 -10 0 -14z m-127 -18 c0 -8 -9 -13 -20 -12 -22 1 -27 23 -7 30 16 6 27 -1 27 -18z m157 8 c-4 -3 -10 -3 -14 0 -3 4 0 7 7 7 7 0 10 -3 7 -7z m133 -113 c0 -5 -2 -10 -4 -10 -3 0 -8 5 -11 10 -3 6 -1 10 4 10 6 0 11 -4 11 -10z m-37 -65 c10 -7 17 -20 15 -28 -2 -10 -13 -7 -42 15 -35 25 -37 28 -15 28 13 0 32 -7 42 -15z m-216 -12 c-4 -3 -7 0 -7 7 0 7 3 10 7 7 3 -4 3 -10 0 -14z m80 11 c-3 -3 -12 -4 -19 -1 -8 3 -5 6 6 6 11 1 17 -2 13 -5z m93 -54 c-9 -6 -19 -5 -25 1 -6 6 -5 13 5 19 9 6 19 5 25 -1 6 -6 5 -13 -5 -19z m72 -66 c-8 -14 -11 -11 -21 16 -15 45 -14 47 9 22 15 -16 18 -27 12 -38z m-78 -4 c-21 -21 -72 -29 -85 -14 -10 12 -6 13 19 8 16 -3 38 -1 49 5 23 13 30 14 17 1z"/>
 <path d="M216 162 c-10 -9 5 -22 24 -22 29 0 33 17 5 22 -13 3 -27 3 -29 0z"/>
 <path d="M0 110 c0 -13 7 -20 20 -20 18 0 19 3 10 20 -6 11 -15 20 -20 20 -6 0 -10 -9 -10 -20z"/>
 <path d="M0 44 c0 -39 1 -40 35 -42 20 -2 35 2 35 8 0 6 -4 9 -9 5 -6 -3 -21 11 -35 32 l-26 38 0 -41z"/>
 </g>
<g id="layer108" fill="#3e4345" stroke="none">
 <path d="M15 630 c16 -7 17 -9 3 -9 -15 -1 -17 -15 -17 -115 l-1 -115 33 13 c20 9 40 11 54 5 22 -8 67 -73 108 -154 20 -39 21 -40 74 -40 40 0 56 -4 65 -17 8 -14 6 -21 -9 -32 -19 -15 -19 -15 8 -16 16 0 26 4 22 10 -3 6 4 14 17 19 30 11 55 40 63 72 3 14 19 38 36 53 32 30 38 71 18 123 -9 24 -7 30 14 48 24 21 41 56 52 113 7 32 7 32 -37 34 -24 1 -6 4 42 8 48 4 -57 7 -240 7 -189 1 -317 -2 -305 -7z m128 -7 c-7 -2 -19 -2 -25 0 -7 3 -2 5 12 5 14 0 19 -2 13 -5z m83 -5 c-1 -7 -5 -18 -9 -25 -5 -8 3 -11 28 -10 33 2 51 19 39 38 -3 5 14 9 38 9 34 -1 39 -3 26 -11 -10 -5 -18 -18 -19 -27 0 -14 -2 -13 -9 3 -7 17 -9 15 -9 -11 -1 -36 -23 -50 -42 -28 -9 11 -22 14 -41 10 -18 -3 -28 -1 -28 6 0 6 -10 22 -22 35 l-21 23 35 0 c23 0 36 -4 34 -12z m-86 -79 c0 -4 -12 -6 -27 -4 -28 3 -33 22 -10 37 11 7 37 -16 37 -33z m197 -16 c-4 -3 -7 0 -7 7 0 7 3 10 7 7 3 -4 3 -10 0 -14z m63 -53 c36 -28 21 -31 -19 -3 -19 12 -28 23 -20 23 8 0 25 -9 39 -20z m-17 -82 c18 -9 24 -48 7 -48 -16 0 -12 -14 10 -38 16 -17 18 -27 11 -40 -8 -15 -11 -14 -20 11 -6 16 -11 32 -11 37 0 12 -23 18 -51 13 -20 -4 -25 0 -26 17 -1 12 1 20 4 16 3 -3 14 -1 25 5 24 13 15 24 -20 25 -53 3 -58 5 -37 13 22 9 80 3 108 -11z m-133 2 c0 -5 -8 -10 -17 -10 -15 0 -16 2 -3 10 19 12 20 12 20 0z m-80 -10 c0 -5 -2 -10 -4 -10 -3 0 -8 5 -11 10 -3 6 -1 10 4 10 6 0 11 -4 11 -10z m120 -44 c0 -3 -5 -8 -12 -12 -7 -4 -8 -3 -4 4 7 12 16 16 16 8z m31 -86 c-24 -21 -39 -24 -65 -14 -25 9 -19 25 7 19 12 -3 34 -2 47 4 36 14 38 13 11 -9z"/>
 <path d="M216 162 c-10 -9 5 -22 24 -22 29 0 33 17 5 22 -13 3 -27 3 -29 0z"/>
 <path d="M0 110 c0 -13 7 -20 20 -20 18 0 19 3 10 20 -6 11 -15 20 -20 20 -6 0 -10 -9 -10 -20z"/>
 <path d="M0 40 c0 -34 2 -36 35 -38 19 -2 35 2 35 8 0 5 -4 9 -10 7 -5 -1 -21 11 -34 28 l-25 30 -1 -35z"/>
 </g>
<g id="layer109" fill="#52504d" stroke="none">
 <path d="M15 630 c16 -7 17 -9 3 -9 -15 -1 -17 -15 -17 -115 l-1 -115 32 13 c47 20 79 5 113 -54 16 -28 33 -50 38 -50 4 0 6 -3 4 -8 -3 -4 3 -23 13 -42 17 -33 21 -35 70 -35 41 0 55 -4 64 -19 8 -14 8 -20 -1 -23 -20 -7 -15 -23 8 -23 11 0 17 5 14 10 -3 6 5 14 19 20 28 10 66 64 66 93 0 9 4 17 10 17 5 0 18 10 29 21 22 23 25 69 9 112 -9 24 -7 32 14 55 32 34 44 57 52 105 l7 37 -48 2 c-30 1 -14 4 42 8 52 4 -48 7 -235 7 -189 1 -317 -2 -305 -7z m128 -7 c-7 -2 -19 -2 -25 0 -7 3 -2 5 12 5 14 0 19 -2 13 -5z m83 -5 c-1 -7 -5 -19 -9 -26 -6 -9 0 -12 25 -10 38 3 52 17 36 35 -8 10 0 13 38 13 38 -1 45 -3 32 -11 -10 -5 -18 -18 -18 -27 0 -15 -2 -15 -10 -2 -8 12 -10 9 -10 -11 0 -32 -23 -44 -41 -23 -9 11 -22 14 -41 10 -18 -3 -28 -1 -28 6 0 6 -10 22 -22 35 l-21 23 35 0 c23 0 36 -4 34 -12z m-86 -79 c0 -4 -12 -6 -27 -4 -28 3 -33 22 -10 37 11 7 37 -16 37 -33z m205 -9 c3 -5 1 -10 -4 -10 -6 0 -11 5 -11 10 0 6 2 10 4 10 3 0 8 -4 11 -10z m55 -60 c36 -28 21 -31 -19 -3 -19 12 -28 23 -20 23 8 0 25 -9 39 -20z m-17 -82 c18 -9 24 -48 7 -48 -16 0 -12 -14 10 -38 16 -17 18 -27 11 -40 -8 -15 -11 -14 -20 11 -6 16 -11 32 -11 37 0 12 -23 18 -51 13 -20 -4 -25 0 -26 17 -1 12 1 20 4 16 3 -3 14 -1 25 5 24 13 15 24 -20 25 -53 3 -58 5 -37 13 22 9 80 3 108 -11z m-133 2 c0 -5 -8 -10 -17 -10 -15 0 -16 2 -3 10 19 12 20 12 20 0z m-80 -15 c0 -8 -2 -15 -4 -15 -2 0 -6 7 -10 15 -3 8 -1 15 4 15 6 0 10 -7 10 -15z m120 -39 c0 -3 -5 -8 -12 -12 -7 -4 -8 -3 -4 4 7 12 16 16 16 8z m31 -86 c-24 -21 -39 -24 -65 -14 -25 9 -19 25 7 19 12 -3 34 -2 47 4 36 14 38 13 11 -9z"/>
 <path d="M215 150 c3 -5 15 -10 25 -10 10 0 22 5 25 10 4 6 -7 10 -25 10 -18 0 -29 -4 -25 -10z"/>
 <path d="M0 110 c0 -11 7 -20 15 -20 17 0 18 2 9 24 -9 23 -24 20 -24 -4z"/>
 <path d="M0 40 c0 -34 2 -36 35 -38 19 -2 35 2 35 8 0 5 -4 9 -10 7 -5 -1 -21 11 -34 28 l-25 30 -1 -35z"/>
 </g>
<g id="layer110" fill="#645f59" stroke="none">
 <path d="M110 633 c88 -3 117 -7 123 -18 4 -8 17 -15 27 -15 22 0 27 16 8 23 -7 3 14 5 47 5 33 0 52 -2 42 -5 -14 -4 -18 -11 -14 -30 4 -21 1 -24 -15 -20 -18 5 -19 2 -14 -31 3 -23 3 -30 -3 -17 -8 19 -8 19 -19 0 -11 -19 -11 -19 -12 2 0 30 -31 46 -65 33 -36 -14 -36 -13 -29 15 5 21 3 25 -16 25 -11 0 -19 4 -16 8 2 4 -31 9 -75 11 l-80 2 3 -28 c2 -23 9 -29 38 -34 23 -3 41 0 53 10 16 13 19 13 34 -1 16 -17 11 -54 -6 -43 -5 3 -12 1 -15 -3 -3 -5 -28 -7 -56 -4 l-50 5 0 -62 c0 -63 4 -68 42 -50 34 15 74 -3 94 -43 9 -18 24 -41 33 -51 9 -11 23 -38 31 -60 15 -41 16 -42 60 -38 25 1 49 4 54 4 5 1 15 -9 22 -23 10 -18 10 -26 1 -32 -6 -4 -8 -10 -4 -14 4 -4 13 -1 20 7 6 9 24 23 39 32 15 9 32 33 39 54 6 21 24 49 39 63 27 26 33 66 16 118 -6 18 -2 30 17 50 30 32 47 72 47 113 0 28 -2 29 -47 31 -27 1 -6 5 47 8 52 3 -51 6 -230 6 -179 0 -273 -2 -210 -3z m231 -116 c-8 -8 -11 -3 -11 19 1 25 2 27 11 11 8 -14 8 -22 0 -30z m52 -39 c18 -12 34 -23 36 -24 1 -2 0 -8 -4 -14 -5 -8 -14 -6 -29 8 -11 10 -29 22 -39 25 -10 4 -15 11 -12 17 9 14 13 13 48 -12z m-10 -85 c16 -10 29 -56 17 -63 -8 -5 -6 -12 5 -24 18 -17 17 -47 -1 -53 -6 -2 -15 11 -20 29 -9 32 -11 33 -71 36 -47 2 -61 6 -57 16 3 8 -5 21 -17 30 -25 17 -19 30 16 39 22 6 114 -1 128 -10z m-209 -18 c-4 -8 -7 -15 -9 -15 -2 0 -5 7 -9 15 -3 9 0 15 9 15 9 0 12 -6 9 -15z m56 -50 c0 -9 -6 -12 -16 -8 -13 5 -13 7 -2 14 17 11 18 11 18 -6z m110 -58 c0 -21 -45 -40 -74 -33 -36 9 -34 29 2 22 17 -4 35 -1 47 8 25 19 25 19 25 3z"/>
 <path d="M260 380 c0 -5 5 -10 10 -10 6 0 10 5 10 10 0 6 -4 10 -10 10 -5 0 -10 -4 -10 -10z"/>
 <path d="M220 150 c0 -5 9 -10 19 -10 11 0 23 5 26 10 4 6 -5 10 -19 10 -14 0 -26 -4 -26 -10z"/>
 <path d="M0 111 c0 -12 6 -21 15 -21 8 0 15 4 15 9 0 5 -7 14 -15 21 -13 10 -15 9 -15 -9z"/>
 <path d="M0 39 c0 -33 2 -35 38 -37 36 -3 36 -2 15 13 -12 9 -29 26 -38 38 -15 21 -15 21 -15 -14z"/>
 </g>
<g id="layer111" fill="#5e625f" stroke="none">
 <path d="M110 633 c88 -3 117 -7 123 -18 4 -8 17 -15 27 -15 22 0 27 16 8 23 -7 3 14 5 47 5 33 0 52 -2 42 -5 -15 -4 -17 -13 -13 -54 2 -27 0 -52 -5 -55 -5 -3 -10 5 -10 18 -1 19 -3 18 -9 -7 -5 -21 -8 -24 -9 -10 -2 18 -3 18 -16 -5 l-14 -25 -1 25 c-1 45 -27 64 -69 48 -24 -9 -51 4 -51 24 0 6 7 5 15 -2 12 -10 15 -10 15 4 0 9 -8 16 -21 16 -11 0 -18 4 -15 8 2 4 -31 9 -75 11 l-80 2 3 -28 c3 -25 8 -28 41 -31 21 -2 45 2 53 9 12 10 18 9 31 -4 16 -16 11 -53 -6 -42 -5 3 -13 1 -16 -5 -4 -6 -14 -10 -23 -9 -10 1 -32 1 -49 0 l-33 -1 0 -55 c0 -57 4 -62 42 -44 34 15 74 -3 94 -43 9 -18 24 -41 33 -51 9 -11 23 -38 31 -60 15 -41 16 -42 60 -38 25 1 49 4 55 4 5 1 14 -8 20 -21 19 -43 76 -16 96 46 6 20 24 48 39 62 27 26 33 66 16 118 -6 18 -2 30 17 50 30 32 47 72 47 113 0 28 -2 29 -47 31 -27 1 -6 5 47 8 52 3 -51 6 -230 6 -179 0 -273 -2 -210 -3z m283 -155 c18 -12 33 -22 35 -23 1 -1 -1 -11 -5 -22 -7 -17 -12 -19 -33 -11 -15 6 -20 12 -12 15 6 3 12 8 12 12 0 12 -50 32 -63 25 -7 -3 -3 2 7 10 25 20 22 20 59 -6z m-90 -40 c6 -4 8 -10 4 -15 -11 -10 -27 17 -26 42 l1 20 5 -20 c3 -11 10 -23 16 -27z m78 -47 c17 -13 23 -28 22 -55 -1 -20 3 -36 9 -36 12 0 6 -42 -7 -47 -6 -2 -17 13 -24 33 l-13 36 -79 -6 c-77 -5 -110 5 -78 25 8 5 16 3 21 -4 10 -16 20 -3 12 17 -3 9 -12 16 -20 16 -24 0 -3 29 24 33 68 10 110 6 133 -12z m-207 -16 c-4 -8 -7 -15 -9 -15 -2 0 -5 7 -9 15 -3 9 0 15 9 15 9 0 12 -6 9 -15z m100 -115 c15 0 36 5 47 10 14 8 19 7 19 -3 0 -20 -45 -41 -73 -34 -13 4 -29 19 -35 34 -11 24 -11 26 1 11 8 -10 26 -18 41 -18z"/>
 <path d="M330 160 c0 -5 5 -10 10 -10 6 0 10 5 10 10 0 6 -4 10 -10 10 -5 0 -10 -4 -10 -10z"/>
 <path d="M220 150 c0 -5 9 -10 19 -10 11 0 23 5 26 10 4 6 -5 10 -19 10 -14 0 -26 -4 -26 -10z"/>
 <path d="M0 111 c0 -12 6 -21 15 -21 8 0 15 4 15 9 0 5 -7 14 -15 21 -13 10 -15 9 -15 -9z"/>
 <path d="M0 39 c0 -33 2 -35 38 -37 36 -3 36 -2 15 13 -12 9 -29 26 -38 38 -15 21 -15 21 -15 -14z"/>
 </g>
<g id="layer112" fill="#66645d" stroke="none">
 <path d="M190 630 c107 -3 185 -8 173 -12 -23 -6 -33 -38 -12 -38 6 0 7 -5 2 -12 -4 -7 -6 -23 -4 -35 1 -13 -2 -23 -8 -23 -6 0 -12 10 -12 23 -1 18 -3 16 -9 -8 -5 -21 -8 -24 -9 -10 -2 18 -3 18 -16 -5 l-14 -25 -1 26 c0 38 -22 52 -68 44 -36 -6 -40 -4 -51 23 -14 34 -34 42 -108 42 -49 0 -53 -2 -53 -24 0 -13 7 -27 16 -30 25 -10 74 -7 74 4 0 17 42 11 46 -7 7 -27 5 -38 -9 -39 -6 0 -19 -4 -28 -8 -9 -4 -20 -6 -25 -5 -5 1 -24 1 -41 0 l-33 -1 0 -55 c0 -30 2 -55 4 -55 1 0 16 5 33 10 40 15 79 -2 101 -41 9 -18 24 -39 32 -48 8 -9 22 -35 29 -59 10 -29 20 -42 33 -42 22 0 22 3 3 43 -12 24 -12 28 -2 15 16 -20 58 -23 88 -8 15 8 19 7 19 -4 0 -8 -7 -19 -16 -24 -14 -8 -14 -10 0 -21 9 -8 16 -20 16 -27 0 -8 7 -14 16 -14 30 0 52 20 69 62 9 23 27 53 41 67 26 26 31 70 14 116 -9 23 -6 30 19 53 19 17 34 44 40 72 16 70 16 70 -41 72 -33 1 -14 4 47 8 55 3 -46 6 -225 6 -268 0 -291 -1 -130 -6z m207 -152 c33 -23 39 -34 25 -54 -5 -8 -15 -8 -32 -2 -15 6 -20 12 -12 15 6 3 12 8 12 12 0 13 -51 32 -63 24 -7 -4 -6 1 2 10 18 22 28 21 68 -5z m-94 -40 c6 -4 8 -10 4 -15 -11 -10 -27 17 -26 42 l1 20 5 -20 c3 -11 10 -23 16 -27z m78 -47 c17 -13 23 -28 22 -55 -1 -20 3 -36 7 -36 15 0 18 -26 4 -44 -12 -17 -14 -15 -30 24 l-17 42 -78 -6 c-77 -5 -110 5 -78 25 8 5 16 3 21 -4 10 -16 20 -3 12 17 -3 9 -12 16 -20 16 -24 0 -3 29 24 33 68 10 110 6 133 -12z m-206 -21 c-5 -8 -11 -8 -17 -2 -6 6 -7 16 -3 22 5 8 11 8 17 2 6 -6 7 -16 3 -22z"/>
 <path d="M235 610 c3 -5 15 -10 26 -10 10 0 19 5 19 10 0 6 -12 10 -26 10 -14 0 -23 -4 -19 -10z"/>
 <path d="M170 591 c0 -5 5 -13 10 -16 6 -3 10 -2 10 4 0 5 -4 13 -10 16 -5 3 -10 2 -10 -4z"/>
 <path d="M278 223 c7 -3 16 -2 19 1 4 3 -2 6 -13 5 -11 0 -14 -3 -6 -6z"/>
 <path d="M330 160 c0 -5 5 -10 10 -10 6 0 10 5 10 10 0 6 -4 10 -10 10 -5 0 -10 -4 -10 -10z"/>
 <path d="M220 150 c0 -5 6 -10 14 -10 8 0 18 5 21 10 3 6 -3 10 -14 10 -12 0 -21 -4 -21 -10z"/>
 <path d="M0 111 c0 -12 6 -21 15 -21 8 0 15 4 15 9 0 5 -7 14 -15 21 -13 10 -15 9 -15 -9z"/>
 <path d="M2 39 c2 -33 4 -35 37 -36 20 -1 29 1 21 3 -8 3 -25 19 -38 37 l-23 32 3 -36z"/>
 </g>
<g id="layer113" fill="#72726e" stroke="none">
 <path d="M190 630 c107 -3 187 -7 178 -8 -22 -3 -31 -18 -21 -34 10 -18 3 -71 -11 -80 -18 -12 -26 -9 -27 10 0 9 -5 4 -10 -13 -10 -36 -3 -65 16 -65 8 0 18 -6 22 -13 4 -7 20 -18 36 -24 17 -8 28 -21 29 -35 2 -31 3 -39 15 -68 10 -22 2 -60 -12 -60 -3 0 -12 18 -21 41 l-17 40 -66 -7 c-36 -3 -67 -8 -69 -9 -2 -2 1 -13 8 -24 13 -25 56 -28 80 -6 16 14 18 14 23 1 4 -9 -2 -21 -12 -28 -18 -13 -18 -14 4 -43 21 -26 26 -28 49 -17 17 7 31 28 43 62 10 27 22 50 27 50 31 0 46 77 24 126 -11 24 -10 28 20 53 21 18 35 40 41 71 16 70 16 70 -41 72 -33 1 -14 4 47 8 55 3 -46 6 -225 6 -277 0 -296 -1 -130 -6z m206 -152 c16 -12 31 -23 32 -24 2 -1 1 -12 -3 -23 -5 -17 -9 -18 -37 -9 -28 10 -30 12 -12 19 17 6 16 8 -9 18 -16 6 -35 11 -43 11 -12 0 -13 3 -2 15 18 20 41 18 74 -7z"/>
 <path d="M0 595 c0 -20 6 -25 36 -31 22 -4 40 -2 47 5 18 18 47 13 56 -11 10 -27 5 -46 -12 -45 -7 0 -38 -1 -69 -1 l-58 -2 0 -56 c0 -53 1 -55 23 -47 32 11 74 8 92 -7 9 -8 25 -31 36 -52 11 -21 24 -36 29 -33 6 4 10 -2 10 -11 0 -36 24 -84 42 -84 22 0 23 -4 -7 58 -25 53 -33 88 -16 77 5 -3 12 -1 16 5 3 5 2 10 -3 10 -13 0 -11 30 2 31 6 1 16 2 21 4 6 1 17 3 27 3 14 2 15 11 11 65 -7 80 -16 90 -69 82 -39 -5 -42 -4 -53 24 -14 33 -34 41 -108 41 -50 0 -53 -2 -53 -25z m180 -216 c0 -24 -23 -21 -28 4 -2 10 3 17 12 17 10 0 16 -9 16 -21z"/>
 <path d="M240 610 c20 -13 40 -13 40 0 0 6 -12 10 -27 10 -22 0 -25 -2 -13 -10z"/>
 <path d="M170 590 c0 -5 5 -10 11 -10 5 0 7 5 4 10 -3 6 -8 10 -11 10 -2 0 -4 -4 -4 -10z"/>
 <path d="M278 223 c7 -3 16 -2 19 1 4 3 -2 6 -13 5 -11 0 -14 -3 -6 -6z"/>
 <path d="M335 160 c-3 -5 -1 -10 4 -10 6 0 11 5 11 10 0 6 -2 10 -4 10 -3 0 -8 -4 -11 -10z"/>
 <path d="M220 150 c0 -5 6 -10 14 -10 8 0 18 5 21 10 3 6 -3 10 -14 10 -12 0 -21 -4 -21 -10z"/>
 <path d="M0 125 c0 -18 19 -40 26 -32 4 4 0 15 -9 24 -9 10 -17 13 -17 8z"/>
 <path d="M2 39 c3 -33 5 -35 38 -36 19 -1 28 1 20 3 -8 3 -25 19 -38 37 l-22 32 2 -36z"/>
 </g>
<g id="layer114" fill="#867b73" stroke="none">
 <path d="M157 633 c90 -2 236 -2 325 0 90 1 17 3 -162 3 -179 0 -252 -2 -163 -3z"/>
 <path d="M90 601 c0 -13 5 -19 14 -15 17 7 51 -40 41 -56 -4 -6 -1 -17 5 -25 8 -10 9 -15 2 -15 -6 0 -13 4 -16 9 -3 5 -34 8 -68 8 l-63 -2 -3 -52 -3 -53 26 10 c41 16 61 12 95 -16 17 -15 30 -21 28 -13 -2 7 5 15 15 17 13 3 17 -3 17 -23 0 -20 -4 -26 -15 -21 -22 8 -18 -12 5 -26 11 -7 20 -21 20 -31 0 -29 29 -77 46 -77 9 0 14 3 12 8 -30 57 -42 96 -44 139 -1 29 2 51 6 48 4 -2 20 1 36 7 26 9 30 16 32 55 3 69 -10 85 -63 78 -41 -7 -44 -5 -59 24 -9 17 -21 31 -25 31 -5 0 -16 3 -25 6 -11 4 -16 0 -16 -15z"/>
 <path d="M240 616 c0 -9 30 -14 35 -6 4 6 -3 10 -14 10 -12 0 -21 -2 -21 -4z"/>
 <path d="M345 610 c-4 -6 -3 -16 3 -23 11 -14 10 -57 -1 -74 -5 -9 -2 -13 8 -13 9 0 30 -9 47 -21 35 -25 35 -60 -1 -69 -21 -5 -22 -7 -7 -19 9 -7 16 -28 16 -45 0 -42 11 -56 39 -49 16 4 21 11 18 24 -3 12 0 16 9 12 20 -7 19 66 -1 94 -15 21 -14 23 14 44 33 24 49 56 53 109 l3 35 -97 3 c-61 2 -99 -1 -103 -8z m92 -282 c-3 -8 -6 -5 -6 6 -1 11 2 17 5 13 3 -3 4 -12 1 -19z"/>
 <path d="M0 595 c0 -16 5 -19 52 -29 25 -6 28 -3 28 19 0 23 -4 25 -40 25 -29 0 -40 -4 -40 -15z"/>
 <path d="M300 500 c0 -11 4 -20 9 -20 17 0 19 15 5 28 -12 11 -14 9 -14 -8z"/>
 <path d="M300 455 c0 -17 2 -18 24 -9 23 9 20 24 -4 24 -11 0 -20 -7 -20 -15z"/>
 <path d="M350 420 c0 -5 5 -10 11 -10 5 0 7 5 4 10 -3 6 -8 10 -11 10 -2 0 -4 -4 -4 -10z"/>
 <path d="M288 313 c-61 -4 -68 -11 -42 -37 22 -22 60 -20 77 4 14 20 15 20 21 3 5 -12 0 -24 -14 -35 -12 -10 -17 -18 -11 -18 6 0 16 -11 21 -25 16 -41 59 -24 80 30 9 25 9 27 -5 15 -8 -7 -17 -11 -18 -9 -1 2 -10 21 -20 42 -9 20 -20 36 -24 35 -5 -1 -34 -3 -65 -5z"/>
 <path d="M225 150 c3 -5 12 -7 20 -3 21 7 19 13 -6 13 -11 0 -18 -4 -14 -10z"/>
 <path d="M0 125 c0 -5 5 -17 10 -25 5 -8 10 -10 10 -5 0 6 -5 17 -10 25 -5 8 -10 11 -10 5z"/>
 <path d="M0 49 c0 -18 35 -53 47 -48 4 2 -4 17 -19 34 -20 21 -28 25 -28 14z"/>
 </g>
<g id="layer115" fill="#7f8280" stroke="none">
 <path d="M157 633 c90 -2 236 -2 325 0 90 1 17 3 -162 3 -179 0 -252 -2 -163 -3z"/>
 <path d="M96 612 c-12 -11 -5 -31 8 -26 17 7 51 -40 41 -56 -4 -6 -1 -17 5 -25 8 -10 9 -15 2 -15 -6 0 -13 4 -17 10 -6 9 -45 11 -102 3 -32 -4 -33 -5 -33 -53 0 -49 0 -49 26 -40 40 16 60 12 94 -16 17 -15 30 -21 28 -13 -2 7 5 15 15 17 13 3 17 -3 17 -23 0 -20 -4 -26 -15 -21 -22 8 -18 -12 5 -26 11 -7 20 -21 20 -31 0 -29 29 -77 46 -77 9 0 14 3 12 8 -2 4 -12 25 -23 47 -21 46 -29 146 -11 139 6 -2 22 5 35 15 19 15 24 28 24 63 0 63 -7 70 -58 62 -41 -6 -44 -4 -59 24 -14 28 -48 47 -60 34z"/>
 <path d="M240 616 c0 -9 30 -14 35 -6 4 6 -3 10 -14 10 -12 0 -21 -2 -21 -4z"/>
 <path d="M345 610 c-4 -6 -3 -16 3 -23 11 -14 10 -57 -1 -74 -6 -9 -2 -13 10 -13 10 0 31 -11 47 -23 24 -19 28 -29 22 -50 -4 -18 -11 -24 -21 -21 -17 7 -21 -11 -5 -21 6 -3 10 -19 10 -35 0 -46 8 -58 36 -52 19 3 24 10 21 23 -3 12 0 16 9 12 20 -7 19 66 -1 94 -15 21 -14 23 14 44 33 24 49 56 53 109 l3 35 -97 3 c-61 2 -99 -1 -103 -8z m92 -292 c-3 -7 -5 -2 -5 12 0 14 2 19 5 13 2 -7 2 -19 0 -25z"/>
 <path d="M0 595 c0 -16 5 -19 53 -30 25 -5 28 -3 25 17 -2 19 -10 24 -40 26 -29 2 -38 0 -38 -13z"/>
 <path d="M300 503 c0 -13 5 -23 10 -23 13 0 13 11 0 30 -8 12 -10 11 -10 -7z"/>
 <path d="M300 455 c0 -9 5 -15 11 -13 6 2 11 8 11 13 0 5 -5 11 -11 13 -6 2 -11 -4 -11 -13z"/>
 <path d="M293 312 c-67 -3 -74 -9 -45 -35 25 -23 47 -21 70 4 18 19 20 19 26 2 5 -12 0 -24 -14 -35 -12 -10 -17 -18 -11 -18 6 0 16 -11 21 -25 16 -41 59 -24 80 31 9 23 9 27 -1 17 -19 -19 -26 -16 -33 12 -4 14 -11 25 -17 25 -6 0 -8 4 -4 9 8 14 -4 16 -72 13z m7 -22 c0 -5 -9 -10 -19 -10 -11 0 -23 5 -26 10 -4 6 5 10 19 10 14 0 26 -4 26 -10z"/>
 <path d="M225 150 c3 -5 12 -7 20 -3 21 7 19 13 -6 13 -11 0 -18 -4 -14 -10z"/>
 <path d="M0 125 c0 -5 5 -17 10 -25 5 -8 10 -10 10 -5 0 6 -5 17 -10 25 -5 8 -10 11 -10 5z"/>
 <path d="M0 49 c0 -18 35 -53 47 -48 4 2 -4 17 -19 34 -20 21 -28 25 -28 14z"/>
 </g>
<g id="layer116" fill="#827f85" stroke="none">
 <path d="M157 633 c90 -2 236 -2 325 0 90 1 17 3 -162 3 -179 0 -252 -2 -163 -3z"/>
 <path d="M248 613 c7 -3 16 -2 19 1 4 3 -2 6 -13 5 -11 0 -14 -3 -6 -6z"/>
 <path d="M353 603 c-4 -9 -2 -18 4 -20 7 -3 8 -16 2 -41 -4 -20 -7 -37 -6 -37 19 -2 65 -40 76 -60 11 -24 11 -29 -1 -36 -17 -10 -23 -88 -7 -109 8 -11 9 -4 7 28 -3 37 -2 41 9 26 7 -10 16 -15 19 -11 4 4 13 2 21 -4 10 -9 13 -4 13 25 0 20 -4 36 -9 36 -5 0 -11 10 -15 22 -4 17 4 32 30 59 28 28 36 46 39 82 5 53 -2 57 -108 57 -54 0 -69 -3 -74 -17z"/>
 <path d="M0 595 c0 -8 12 -17 28 -21 15 -3 33 -7 40 -10 13 -4 15 6 6 30 -8 21 -74 22 -74 1z"/>
 <path d="M119 581 c17 -16 31 -33 32 -38 0 -4 2 -18 3 -31 2 -18 -1 -21 -13 -16 -19 9 -104 9 -126 0 -10 -4 -15 -19 -15 -50 l0 -45 33 14 c29 12 37 12 63 -2 16 -9 41 -15 57 -14 24 1 27 -2 27 -29 0 -18 -4 -29 -10 -25 -5 3 -10 1 -10 -4 0 -6 7 -11 15 -11 9 0 15 -9 15 -25 0 -35 27 -85 45 -85 19 0 19 -1 -9 51 -17 32 -23 61 -23 103 0 31 3 52 7 46 6 -9 14 -8 34 5 23 15 26 24 26 70 0 59 -13 71 -56 55 -38 -15 -42 -13 -60 25 -12 26 -23 35 -41 35 l-25 0 31 -29z"/>
 <path d="M300 503 c0 -13 5 -23 10 -23 13 0 13 11 0 30 -8 12 -10 11 -10 -7z"/>
 <path d="M300 455 c0 -9 5 -15 11 -13 6 2 11 8 11 13 0 5 -5 11 -11 13 -6 2 -11 -4 -11 -13z"/>
 <path d="M440 314 c0 -17 22 -14 28 4 2 7 -3 12 -12 12 -9 0 -16 -7 -16 -16z"/>
 <path d="M293 312 c-67 -3 -74 -9 -45 -35 24 -22 47 -21 69 2 15 15 20 17 30 6 9 -10 8 -17 -7 -30 -17 -16 -17 -18 -2 -46 10 -16 20 -29 23 -29 15 0 59 43 59 58 0 15 -2 15 -10 2 -7 -12 -12 -8 -21 18 -6 17 -15 32 -21 32 -5 0 -7 4 -3 9 8 14 -4 16 -72 13z m7 -22 c0 -5 -9 -10 -19 -10 -11 0 -23 5 -26 10 -4 6 5 10 19 10 14 0 26 -4 26 -10z"/>
 <path d="M233 153 c4 -3 10 -3 14 0 3 4 0 7 -7 7 -7 0 -10 -3 -7 -7z"/>
 <path d="M0 49 c0 -16 37 -56 44 -48 2 2 -7 17 -20 34 -16 20 -24 25 -24 14z"/>
 </g>
<g id="layer117" fill="#88847e" stroke="none">
 <path d="M157 633 c90 -2 236 -2 325 0 90 1 17 3 -162 3 -179 0 -252 -2 -163 -3z"/>
 <path d="M248 613 c7 -3 16 -2 19 1 4 3 -2 6 -13 5 -11 0 -14 -3 -6 -6z"/>
 <path d="M353 603 c-4 -9 -2 -18 4 -20 7 -3 8 -16 2 -41 -4 -20 -7 -37 -6 -37 19 -2 65 -40 76 -60 11 -24 11 -29 -1 -36 -17 -10 -23 -88 -7 -109 8 -11 9 -4 7 28 -3 37 -2 41 9 26 7 -10 16 -15 19 -11 4 4 13 2 21 -4 10 -9 13 -4 13 25 0 20 -4 36 -9 36 -5 0 -11 10 -15 22 -4 17 4 32 30 59 28 28 36 46 39 82 5 53 -2 57 -108 57 -54 0 -69 -3 -74 -17z"/>
 <path d="M0 595 c0 -8 12 -17 28 -21 15 -3 33 -7 40 -10 13 -4 15 6 6 30 -8 21 -74 22 -74 1z"/>
 <path d="M119 581 c17 -16 31 -33 32 -38 0 -4 2 -18 3 -31 2 -18 -1 -21 -13 -16 -19 9 -104 9 -126 0 -10 -4 -15 -19 -15 -50 l0 -45 33 14 c29 12 37 12 63 -2 16 -9 41 -15 57 -14 24 1 27 -2 27 -29 0 -18 -4 -29 -10 -25 -5 3 -10 1 -10 -4 0 -6 7 -11 15 -11 9 0 15 -9 15 -25 0 -35 27 -85 45 -85 19 0 19 -1 -9 51 -17 32 -23 61 -23 103 0 31 3 52 7 46 6 -9 14 -8 34 5 23 15 26 24 26 70 0 59 -13 71 -56 55 -38 -15 -42 -13 -60 25 -12 26 -23 35 -41 35 l-25 0 31 -29z"/>
 <path d="M300 503 c0 -13 5 -23 10 -23 13 0 13 11 0 30 -8 12 -10 11 -10 -7z"/>
 <path d="M300 455 c0 -9 5 -15 11 -13 6 2 11 8 11 13 0 5 -5 11 -11 13 -6 2 -11 -4 -11 -13z"/>
 <path d="M440 314 c0 -17 22 -14 28 4 2 7 -3 12 -12 12 -9 0 -16 -7 -16 -16z"/>
 <path d="M293 312 c-67 -3 -74 -9 -45 -35 24 -22 47 -21 69 2 15 15 20 17 30 6 9 -10 8 -17 -7 -30 -17 -16 -17 -18 -2 -46 10 -16 20 -29 23 -29 15 0 59 43 59 58 0 15 -2 15 -10 2 -7 -12 -12 -8 -21 18 -6 17 -15 32 -21 32 -5 0 -7 4 -3 9 8 14 -4 16 -72 13z m7 -22 c0 -5 -9 -10 -19 -10 -11 0 -23 5 -26 10 -4 6 5 10 19 10 14 0 26 -4 26 -10z"/>
 <path d="M0 49 c0 -16 37 -56 44 -48 2 2 -7 17 -20 34 -16 20 -24 25 -24 14z"/>
 </g>
<g id="layer118" fill="#919390" stroke="none">
 <path d="M157 633 c90 -2 236 -2 325 0 90 1 17 3 -162 3 -179 0 -252 -2 -163 -3z"/>
 <path d="M248 613 c7 -3 16 -2 19 1 4 3 -2 6 -13 5 -11 0 -14 -3 -6 -6z"/>
 <path d="M353 603 c-4 -9 -2 -18 5 -21 6 -2 9 -9 7 -15 -12 -41 -14 -67 -5 -67 25 0 78 -45 78 -67 0 -13 -4 -23 -8 -23 -14 0 -21 -74 -10 -100 9 -22 10 -20 7 18 -2 37 -1 41 10 26 7 -10 16 -15 19 -11 4 4 13 2 21 -4 10 -9 13 -4 13 25 0 20 -4 36 -10 36 -5 0 -10 6 -10 14 0 8 -5 16 -11 18 -7 2 7 22 30 44 35 33 43 47 46 86 l4 45 -46 7 c-84 11 -133 8 -140 -11z"/>
 <path d="M124 581 c38 -39 47 -121 11 -91 -18 15 -102 15 -120 0 -9 -7 -15 -29 -15 -51 l0 -38 33 14 c29 12 37 12 63 -2 16 -9 41 -15 57 -14 24 1 27 -2 27 -29 0 -18 -4 -29 -10 -25 -5 3 -10 1 -10 -4 0 -6 7 -11 15 -11 9 0 15 -9 15 -25 0 -35 27 -85 45 -85 19 0 19 0 -9 51 -18 33 -24 59 -23 104 0 33 2 55 4 48 3 -8 13 -7 34 5 25 15 29 23 29 63 0 57 -16 74 -56 59 -32 -13 -54 -7 -54 15 0 8 -4 15 -10 15 -5 0 -10 7 -10 15 0 9 -9 15 -22 15 -21 0 -21 -1 6 -29z m123 -58 c-4 -3 -10 -3 -14 0 -3 4 0 7 7 7 7 0 10 -3 7 -7z"/>
 <path d="M0 591 c0 -11 25 -21 56 -21 17 0 22 4 18 15 -7 16 -74 22 -74 6z"/>
 <path d="M300 496 c0 -9 5 -16 10 -16 6 0 10 4 10 9 0 6 -4 13 -10 16 -5 3 -10 -1 -10 -9z"/>
 <path d="M300 460 c0 -5 5 -10 10 -10 6 0 10 5 10 10 0 6 -4 10 -10 10 -5 0 -10 -4 -10 -10z"/>
 <path d="M440 314 c0 -17 22 -14 28 4 2 7 -3 12 -12 12 -9 0 -16 -7 -16 -16z"/>
 <path d="M240 300 c0 -7 3 -10 7 -7 3 4 3 10 0 14 -4 3 -7 0 -7 -7z"/>
 <path d="M303 303 c20 -2 37 -8 37 -14 0 -5 5 -9 10 -9 6 0 10 7 10 15 0 11 -11 15 -47 13 -44 -1 -45 -2 -10 -5z"/>
 <path d="M349 264 c-26 -25 -26 -27 -10 -55 19 -35 21 -35 55 -8 24 19 38 48 16 34 -5 -3 -15 8 -22 25 l-13 31 -26 -27z"/>
 <path d="M268 268 c17 -8 26 -8 34 0 9 9 4 12 -22 11 -33 0 -34 -1 -12 -11z"/>
 <path d="M0 47 c0 -15 37 -53 44 -46 2 2 -7 17 -20 32 -14 16 -24 22 -24 14z"/>
 </g>
<g id="layer119" fill="#a49c96" stroke="none">
 <path d="M157 633 c90 -2 236 -2 325 0 90 1 17 3 -162 3 -179 0 -252 -2 -163 -3z"/>
 <path d="M361 611 c-7 -5 -10 -14 -7 -20 4 -6 12 -9 17 -5 5 3 6 11 2 17 -5 8 -2 8 9 -1 10 -8 13 -22 10 -39 -5 -25 -6 -25 -18 -8 -13 17 -14 16 -14 -16 0 -31 5 -38 40 -58 29 -16 40 -29 40 -46 0 -13 -5 -25 -12 -27 -9 -3 -9 -11 1 -35 9 -22 19 -30 37 -30 31 0 32 28 3 69 l-21 29 41 38 c23 21 41 43 41 50 0 7 -4 10 -9 7 -4 -3 -16 3 -26 14 -10 12 -13 20 -7 20 7 0 12 -5 12 -11 0 -22 25 -1 27 23 1 23 -3 26 -44 32 -63 8 -105 7 -122 -3z m94 -61 c-3 -5 -11 -10 -16 -10 -6 0 -7 5 -4 10 3 6 11 10 16 10 6 0 7 -4 4 -10z"/>
 <path d="M110 600 c0 -5 5 -10 11 -10 5 0 7 5 4 10 -3 6 -8 10 -11 10 -2 0 -4 -4 -4 -10z"/>
 <path d="M136 573 c6 -4 14 -15 17 -23 5 -11 6 -9 4 4 -1 11 -9 21 -17 23 -10 3 -11 2 -4 -4z"/>
 <path d="M216 545 c-15 -8 -32 -12 -37 -9 -5 3 -12 -9 -16 -26 -5 -26 -9 -31 -27 -25 -48 14 -62 15 -81 6 -11 -5 -28 -12 -38 -15 -11 -3 -17 -16 -17 -36 0 -34 -1 -34 35 -20 19 7 35 6 63 -7 20 -9 46 -15 58 -14 19 2 22 -5 28 -54 8 -72 30 -125 52 -125 12 0 14 3 6 13 -6 6 -19 35 -30 62 -15 38 -17 56 -10 69 7 13 7 21 -2 26 -7 4 -10 15 -7 25 4 9 11 13 17 10 5 -3 10 -1 10 4 0 6 11 11 25 11 23 0 25 3 25 49 0 60 -15 76 -54 56z m34 -25 c0 -5 -4 -10 -10 -10 -5 0 -10 5 -10 10 0 6 5 10 10 10 6 0 10 -4 10 -10z m7 -57 c-4 -3 -7 0 -7 7 0 7 3 10 7 7 3 -4 3 -10 0 -14z m-117 -28 c0 -8 -2 -15 -4 -15 -2 0 -6 7 -10 15 -3 8 -1 15 4 15 6 0 10 -7 10 -15z"/>
 <path d="M301 494 c0 -11 3 -14 6 -6 3 7 2 16 -1 19 -3 4 -6 -2 -5 -13z"/>
 <path d="M300 460 c0 -5 5 -10 10 -10 6 0 10 5 10 10 0 6 -4 10 -10 10 -5 0 -10 -4 -10 -10z"/>
 <path d="M411 350 c0 -14 4 -34 9 -45 7 -17 9 -16 9 10 0 17 -4 37 -9 45 -8 12 -10 10 -9 -10z"/>
 <path d="M160 340 c0 -7 3 -10 7 -7 3 4 3 10 0 14 -4 3 -7 0 -7 -7z"/>
 <path d="M440 314 c0 -17 22 -14 28 4 2 7 -3 12 -12 12 -9 0 -16 -7 -16 -16z"/>
 <path d="M303 303 c4 -3 10 -3 14 0 3 4 0 7 -7 7 -7 0 -10 -3 -7 -7z"/>
 <path d="M340 294 c0 -8 5 -12 10 -9 6 3 10 10 10 16 0 5 -4 9 -10 9 -5 0 -10 -7 -10 -16z"/>
 <path d="M345 260 c-16 -16 -24 -30 -18 -30 6 0 14 -11 17 -25 8 -30 16 -31 47 -5 16 13 20 22 13 27 -6 5 -15 21 -20 36 l-9 28 -30 -31z"/>
 <path d="M290 269 c0 -5 5 -7 10 -4 6 3 10 8 10 11 0 2 -4 4 -10 4 -5 0 -10 -5 -10 -11z"/>
 <path d="M0 52 c0 -14 37 -58 43 -52 3 3 -6 18 -19 33 -13 15 -24 24 -24 19z"/>
 </g>
<g id="layer120" fill="#a0a29e" stroke="none">
 <path d="M157 633 c90 -2 236 -2 325 0 90 1 17 3 -162 3 -179 0 -252 -2 -163 -3z"/>
 <path d="M361 611 c-7 -5 -10 -14 -7 -20 4 -6 12 -9 17 -5 5 3 6 11 2 17 -5 8 -2 8 9 -1 10 -8 13 -22 10 -39 -5 -25 -6 -25 -18 -8 -13 17 -14 16 -14 -16 0 -31 5 -38 40 -58 29 -16 40 -29 40 -46 0 -13 -5 -25 -12 -27 -9 -3 -9 -11 1 -35 9 -22 19 -30 37 -30 31 0 32 28 3 69 l-22 30 42 38 c22 21 41 43 41 49 0 7 -4 10 -9 7 -4 -3 -16 3 -26 14 -10 12 -13 20 -7 20 7 0 12 -5 12 -11 0 -22 25 -1 27 23 1 23 -3 26 -44 32 -63 8 -105 7 -122 -3z m94 -61 c-3 -5 -11 -10 -16 -10 -6 0 -7 5 -4 10 3 6 11 10 16 10 6 0 7 -4 4 -10z"/>
 <path d="M110 600 c0 -5 5 -10 11 -10 5 0 7 5 4 10 -3 6 -8 10 -11 10 -2 0 -4 -4 -4 -10z"/>
 <path d="M136 573 c6 -4 14 -15 17 -23 5 -11 6 -9 4 4 -1 11 -9 21 -17 23 -10 3 -11 2 -4 -4z"/>
 <path d="M202 538 c-27 -14 -42 -28 -42 -41 0 -15 -5 -18 -22 -13 -50 15 -64 16 -83 7 -11 -5 -28 -12 -38 -15 -11 -3 -17 -16 -17 -36 0 -34 -1 -34 35 -20 19 7 35 6 62 -5 19 -8 46 -15 58 -15 20 0 23 -7 29 -56 8 -68 30 -124 49 -124 10 0 7 16 -15 60 -24 51 -26 64 -17 82 9 17 9 23 0 26 -33 11 5 52 48 52 18 0 21 6 21 49 0 65 -14 76 -68 49z m48 -18 c0 -5 -4 -10 -10 -10 -5 0 -10 5 -10 10 0 6 5 10 10 10 6 0 10 -4 10 -10z m7 -57 c-4 -3 -7 0 -7 7 0 7 3 10 7 7 3 -4 3 -10 0 -14z m-117 -28 c0 -8 -2 -15 -4 -15 -2 0 -6 7 -10 15 -3 8 -1 15 4 15 6 0 10 -7 10 -15z"/>
 <path d="M300 490 c0 -7 3 -10 7 -7 3 4 3 10 0 14 -4 3 -7 0 -7 -7z"/>
 <path d="M300 460 c0 -5 5 -10 11 -10 5 0 7 5 4 10 -3 6 -8 10 -11 10 -2 0 -4 -4 -4 -10z"/>
 <path d="M411 350 c0 -14 4 -32 9 -40 8 -12 10 -12 9 5 0 11 -4 29 -9 40 -8 18 -9 18 -9 -5z"/>
 <path d="M160 340 c0 -7 3 -10 7 -7 3 4 3 10 0 14 -4 3 -7 0 -7 -7z"/>
 <path d="M440 314 c0 -17 22 -14 28 4 2 7 -3 12 -12 12 -9 0 -16 -7 -16 -16z"/>
 <path d="M340 300 c0 -5 5 -10 10 -10 6 0 10 5 10 10 0 6 -4 10 -10 10 -5 0 -10 -4 -10 -10z"/>
 <path d="M341 255 c-13 -14 -19 -25 -13 -25 5 0 13 -11 16 -25 8 -30 16 -31 47 -5 16 13 20 22 13 27 -6 5 -14 18 -18 31 -9 28 -15 28 -45 -3z"/>
 <path d="M0 52 c0 -14 37 -58 43 -52 3 3 -6 18 -19 33 -13 15 -24 24 -24 19z"/>
 </g>
<g id="layer121" fill="#9ea4a3" stroke="none">
 <path d="M157 633 c90 -2 236 -2 325 0 90 1 17 3 -162 3 -179 0 -252 -2 -163 -3z"/>
 <path d="M385 611 c3 -6 8 -28 10 -47 3 -34 3 -35 -16 -18 -18 16 -19 16 -19 -9 0 -19 10 -33 37 -52 21 -14 45 -25 54 -25 20 0 79 53 79 71 0 7 -3 9 -7 6 -3 -4 -14 0 -24 9 -14 12 -22 13 -39 4 -12 -6 -24 -9 -27 -6 -3 3 10 11 28 19 29 12 35 12 42 0 9 -14 27 -9 27 8 0 6 -4 8 -9 5 -5 -4 -7 2 -5 11 4 13 -2 19 -18 20 -13 2 -45 6 -72 9 -35 4 -47 3 -41 -5z"/>
 <path d="M350 600 c0 -6 7 -10 15 -10 8 0 15 2 15 4 0 2 -7 6 -15 10 -8 3 -15 1 -15 -4z"/>
 <path d="M209 538 c-1 -7 0 -23 1 -36 1 -21 -1 -22 -18 -11 -16 10 -23 8 -42 -11 -12 -12 -18 -25 -13 -29 6 -3 10 -15 10 -25 0 -17 -2 -17 -19 4 -10 12 -18 31 -18 41 0 13 -7 19 -24 19 -14 0 -28 -5 -31 -10 -4 -6 -12 -10 -18 -9 -27 3 -37 -2 -37 -21 0 -18 21 -26 53 -21 4 1 24 -6 43 -14 46 -19 94 -20 94 -2 0 8 19 20 43 27 24 8 35 15 26 17 -19 4 -34 62 -20 76 5 5 12 -6 16 -25 7 -29 9 -30 12 -10 3 13 2 30 -1 38 -7 17 -56 19 -57 2z"/>
 <path d="M437 410 c-13 -16 -15 -25 -7 -40 6 -11 15 -20 20 -20 4 0 15 -3 23 -6 13 -5 14 1 7 31 -11 50 -22 59 -43 35z"/>
 <path d="M180 358 l0 -33 15 29 c18 35 18 36 0 36 -10 0 -15 -10 -15 -32z"/>
 <path d="M411 345 c0 -11 4 -27 9 -35 9 -13 10 -13 9 0 0 8 -4 24 -9 35 l-9 20 0 -20z"/>
 <path d="M160 340 c0 -7 3 -10 7 -7 3 4 3 10 0 14 -4 3 -7 0 -7 -7z"/>
 <path d="M445 321 c-6 -11 9 -23 19 -14 9 9 7 23 -3 23 -6 0 -12 -4 -16 -9z"/>
 <path d="M350 300 c0 -7 3 -10 7 -7 3 4 3 10 0 14 -4 3 -7 0 -7 -7z"/>
 <path d="M198 294 c-7 -12 20 -74 32 -74 14 0 12 10 -9 49 -10 19 -20 30 -23 25z"/>
 <path d="M349 257 c-12 -17 -13 -28 -5 -49 12 -33 14 -33 46 -8 17 13 21 22 14 27 -6 5 -14 18 -18 31 -9 28 -17 27 -37 -1z"/>
 <path d="M16 25 c9 -14 20 -25 25 -25 5 0 -1 11 -13 25 -12 14 -23 25 -25 25 -2 0 4 -11 13 -25z"/>
 </g>
<g id="layer122" fill="#b0b3b0" stroke="none">
 <path d="M157 633 c90 -2 236 -2 325 0 90 1 17 3 -162 3 -179 0 -252 -2 -163 -3z"/>
 <path d="M387 608 c16 -21 12 -75 -5 -74 -30 2 -22 -23 15 -48 46 -32 60 -32 97 -3 49 40 11 86 -44 53 -27 -15 -28 -15 -23 2 2 10 16 23 31 29 15 6 36 14 47 19 17 7 15 9 -12 12 -18 2 -33 7 -33 13 0 5 -19 9 -41 9 -32 0 -39 -3 -32 -12z"/>
 <path d="M350 600 c0 -5 5 -10 11 -10 5 0 7 5 4 10 -3 6 -8 10 -11 10 -2 0 -4 -4 -4 -10z"/>
 <path d="M213 538 c-4 -7 -6 -26 -4 -42 2 -20 -1 -27 -11 -23 -7 2 -12 10 -10 16 4 18 -16 13 -39 -10 -12 -12 -17 -24 -12 -28 6 -3 10 -15 10 -25 0 -18 -2 -17 -18 3 -11 14 -24 20 -31 15 -10 -6 -11 -4 0 7 6 7 12 19 12 26 0 18 -47 17 -57 -1 -4 -8 -17 -14 -27 -13 -10 1 -21 -3 -23 -10 -3 -7 17 -16 51 -23 31 -6 58 -16 61 -21 10 -16 75 -11 75 6 0 8 17 19 43 26 23 7 35 14 27 16 -21 5 -41 70 -24 77 7 3 15 -8 19 -27 7 -29 8 -30 12 -9 3 13 2 30 -1 38 -7 17 -42 19 -53 2z"/>
 <path d="M450 412 c0 -6 -7 -12 -15 -12 -31 0 -5 -44 31 -52 18 -5 21 -2 16 16 -6 26 -32 65 -32 48z"/>
 <path d="M180 358 l0 -33 15 29 c18 35 18 36 0 36 -10 0 -15 -10 -15 -32z"/>
 <path d="M411 345 c0 -11 4 -27 9 -35 9 -13 10 -13 9 0 0 8 -4 24 -9 35 l-9 20 0 -20z"/>
 <path d="M446 321 c-4 -5 -2 -12 3 -15 5 -4 12 -2 15 3 4 5 2 12 -3 15 -5 4 -12 2 -15 -3z"/>
 <path d="M350 300 c0 -7 3 -10 7 -7 3 4 3 10 0 14 -4 3 -7 0 -7 -7z"/>
 <path d="M198 294 c-7 -12 20 -74 32 -74 14 0 12 10 -9 49 -10 19 -20 30 -23 25z"/>
 <path d="M349 257 c-12 -17 -13 -28 -5 -49 12 -33 14 -33 46 -8 17 13 21 22 14 27 -6 5 -14 18 -18 31 -9 28 -17 27 -37 -1z"/>
 <path d="M16 25 c9 -14 20 -25 25 -25 5 0 -1 11 -13 25 -12 14 -23 25 -25 25 -2 0 4 -11 13 -25z"/>
 </g>
<g id="layer123" fill="#bec3c0" stroke="none">
 <path d="M157 633 c90 -2 236 -2 325 0 90 1 17 3 -162 3 -179 0 -252 -2 -163 -3z"/>
 <path d="M392 608 c5 -13 57 -43 63 -36 2 2 2 14 -2 26 -4 16 -13 22 -35 22 -19 0 -28 -4 -26 -12z"/>
 <path d="M413 563 c4 -3 10 -3 14 0 3 4 0 7 -7 7 -7 0 -10 -3 -7 -7z"/>
 <path d="M225 540 c-3 -6 1 -7 9 -4 18 7 21 14 7 14 -6 0 -13 -4 -16 -10z"/>
 <path d="M457 531 c-11 -11 -15 -25 -11 -37 4 -13 1 -12 -12 6 -18 24 -62 35 -65 16 -2 -18 66 -50 91 -43 31 8 67 33 59 42 -4 3 -14 -1 -22 -10 -9 -8 -22 -15 -29 -15 -7 1 -3 9 10 20 13 11 21 24 17 30 -9 14 -17 12 -38 -9z"/>
 <path d="M260 520 c0 -7 3 -10 7 -7 3 4 3 10 0 14 -4 3 -7 0 -7 -7z"/>
 <path d="M212 491 c1 -40 -10 -51 -27 -27 -8 10 -18 15 -24 11 -12 -7 -15 -58 -5 -68 9 -9 34 4 34 18 0 7 11 16 24 19 22 5 24 9 16 37 -13 44 -19 47 -18 10z"/>
 <path d="M57 466 c-7 -20 4 -36 26 -35 12 0 16 3 9 6 -10 4 -10 9 3 23 15 16 14 18 -9 18 -14 0 -27 -6 -29 -12z"/>
 <path d="M110 426 c0 -9 5 -16 10 -16 6 0 10 4 10 9 0 6 -4 13 -10 16 -5 3 -10 -1 -10 -9z"/>
 <path d="M450 401 c0 -6 -7 -8 -15 -5 -8 4 -15 2 -15 -2 1 -17 27 -44 44 -44 20 0 21 27 1 46 -8 9 -15 11 -15 5z"/>
 <path d="M183 375 c-9 -24 1 -27 15 -5 8 13 8 20 2 20 -6 0 -13 -7 -17 -15z"/>
 <path d="M411 344 c0 -11 3 -14 6 -6 3 7 2 16 -1 19 -3 4 -6 -2 -5 -13z"/>
 <path d="M450 320 c0 -7 3 -10 7 -7 3 4 3 10 0 14 -4 3 -7 0 -7 -7z"/>
 <path d="M205 270 c6 -36 19 -57 28 -43 3 4 -4 24 -14 43 l-20 35 6 -35z"/>
 <path d="M349 257 c-13 -18 -14 -27 -4 -50 11 -28 12 -28 33 -10 20 16 21 21 10 51 -15 38 -18 39 -39 9z"/>
 </g>
<g id="layer124" fill="#c2c4bf" stroke="none">
 <path d="M157 633 c90 -2 236 -2 325 0 90 1 17 3 -162 3 -179 0 -252 -2 -163 -3z"/>
 <path d="M402 604 c9 -9 24 -14 32 -11 27 11 17 27 -16 27 -30 0 -31 -1 -16 -16z"/>
 <path d="M372 520 c2 -8 20 -24 38 -34 43 -26 35 -2 -9 26 -24 15 -33 18 -29 8z"/>
 <path d="M453 492 c0 -12 5 -22 9 -22 11 0 10 12 -2 30 -7 12 -9 10 -7 -8z"/>
 <path d="M494 498 c-4 -7 -3 -8 4 -4 7 4 12 9 12 12 0 8 -9 4 -16 -8z"/>
 <path d="M214 480 c0 -13 4 -16 10 -10 7 7 7 13 0 20 -6 6 -10 3 -10 -10z"/>
 <path d="M164 463 c4 -6 2 -14 -4 -18 -18 -11 -11 -35 10 -35 24 0 26 19 4 46 -8 10 -13 14 -10 7z"/>
 <path d="M420 392 c0 -4 7 -15 14 -25 14 -18 50 -13 43 6 -4 12 -57 29 -57 19z"/>
 <path d="M185 379 c-11 -17 1 -21 15 -4 8 9 8 15 2 15 -6 0 -14 -5 -17 -11z"/>
 <path d="M450 320 c0 -7 3 -10 7 -7 3 4 3 10 0 14 -4 3 -7 0 -7 -7z"/>
 <path d="M200 279 c0 -16 20 -49 30 -49 4 0 2 14 -6 30 -16 31 -24 38 -24 19z"/>
 <path d="M352 257 c-13 -14 -18 -27 -13 -33 5 -5 11 -17 13 -28 3 -18 4 -18 26 0 22 18 22 21 9 52 l-13 32 -22 -23z"/>
 </g>
<g id="layer125" fill="#ccd0cd" stroke="none">
 <path d="M157 633 c90 -2 236 -2 325 0 90 1 17 3 -162 3 -179 0 -252 -2 -163 -3z"/>
 <path d="M402 604 c9 -9 24 -14 32 -11 27 11 17 27 -16 27 -30 0 -31 -1 -16 -16z"/>
 <path d="M372 520 c2 -8 20 -24 38 -34 43 -26 35 -2 -9 26 -24 15 -33 18 -29 8z"/>
 <path d="M450 500 c0 -7 3 -10 7 -7 3 4 3 10 0 14 -4 3 -7 0 -7 -7z"/>
 <path d="M494 498 c-4 -7 -3 -8 4 -4 7 4 12 9 12 12 0 8 -9 4 -16 -8z"/>
 <path d="M160 430 c0 -13 5 -20 13 -17 6 2 12 10 12 17 0 7 -6 15 -12 18 -8 2 -13 -5 -13 -18z"/>
 <path d="M420 392 c0 -4 7 -15 14 -25 14 -18 50 -13 43 6 -4 12 -57 29 -57 19z"/>
 <path d="M200 279 c0 -17 26 -57 33 -49 2 3 -4 19 -14 35 -11 17 -19 23 -19 14z"/>
 <path d="M348 254 c-12 -12 -13 -20 -4 -40 12 -27 28 -31 45 -11 8 10 7 21 -2 40 -14 31 -17 32 -39 11z"/>
 </g>
<g id="layer126" fill="#dee4e1" stroke="none">
 <path d="M157 633 c90 -2 236 -2 325 0 90 1 17 3 -162 3 -179 0 -252 -2 -163 -3z"/>
 <path d="M408 598 c9 -9 15 -9 24 0 9 9 7 12 -12 12 -19 0 -21 -3 -12 -12z"/>
 <path d="M380 511 c0 -10 39 -36 45 -29 2 2 -8 11 -21 21 -13 10 -24 13 -24 8z"/>
 <path d="M440 369 c7 -11 14 -18 17 -15 8 8 -5 36 -17 36 -7 0 -7 -6 0 -21z"/>
 <path d="M206 270 c3 -14 10 -29 15 -35 14 -15 10 7 -7 35 l-15 25 7 -25z"/>
 <path d="M352 254 c-8 -15 -5 -64 5 -64 2 0 13 5 24 10 18 10 18 13 4 40 -18 35 -21 36 -33 14z"/>
 </g>
<g id="layer127" fill="#f2f3f1" stroke="none">
 <path d="M157 633 c90 -2 236 -2 325 0 90 1 17 3 -162 3 -179 0 -252 -2 -163 -3z"/>
 <path d="M350 224 c0 -13 4 -25 9 -28 13 -8 32 19 26 36 -9 23 -35 17 -35 -8z"/>
 </g>

</svg>